# xmcd CD database file
#
# Track frame offsets:
#	150
#	12660
#	25480
#	40005
#	66515
#	85510
#	102555
#	121402
#	148347
#	168037
#	182437
#	193110
#	213500
#	231430
#	255237
#	277717
#
# Disc length: 3972 seconds
#
# Revision: 3
# Processed by: cddbd v1.5.2PL0 Copyright (c) Steve Scherf et al.
# Submitted via: CDex 1.51
#
DISCID=df0f8210
DTITLE=Various Artist - Amazing Voice 2
DYEAR=2000
DGENRE=New Age
TTITLE0=Sabhal La'n Ic Uisdean
TTITLE1=Ajde Jano
TTITLE2=Only If
TTITLE3=The River Is Dlowing
TTITLE4=Mahk Jchi
TTITLE5=Ce Train Quisen Ba
TTITLE6=Quand Je Pense A Tol
TTITLE7=Alegria
TTITLE8=Milagre
TTITLE9=Moon I A Harsh Mistress
TTITLE10=The Crocodile Tango
TTITLE11=Aspente Le Stelle
TTITLE12=Just Show Me How To Live You
TTITLE13=Cancao Do Mar
TTITLE14=Gateved Gate
TTITLE15=Kyrie
EXTD=YEAR: 2000
EXTT0=
EXTT1=
EXTT2=
EXTT3=
EXTT4=
EXTT5=
EXTT6=
EXTT7=
EXTT8=
EXTT9=
EXTT10=
EXTT11=
EXTT12=
EXTT13=
EXTT14=
EXTT15=
PLAYORDER=
